<svg width="32" height="32" viewBox="0 0 32 32" fill="none" xmlns="http://www.w3.org/2000/svg">
  <path d="M16 0C7.164 0 0 7.164 0 16C0 23.088 4.584 29.164 10.94 31.18C11.74 31.332 12.04 30.884 12.04 30.492C12.04 30.124 12.032 29.308 12.032 28.476C8 29.3 6.96 27.54 6.64 26.684C6.472 26.232 5.688 24.992 5 24.332C4.488 23.848 3.64 22.996 4.96 22.976C6.2 22.956 7.02 24.084 7.46 24.672C8.88 27.196 11.18 26.496 12.1 26.096C12.18 25.136 11.6 24.496 11.04 24.156C8.04 23.836 5.12 22.496 5.12 16.996C5.12 15.036 5.74 13.476 7.5 12.336C7.36 11.976 6.76 10.036 7.64 7.536C7.64 7.536 9.16 7.036 12.04 9.376C13.32 9.036 14.68 8.916 16.04 8.916C17.4 8.916 18.76 9.036 20.04 9.376C22.92 7.016 24.44 7.536 24.44 7.536C25.32 10.036 24.72 11.976 24.58 12.336C26.34 13.476 26.96 15.036 26.96 16.996C26.96 22.516 24.02 23.836 21.02 24.156C20.46 24.496 19.88 25.136 19.96 26.096C20.88 26.496 23.18 27.196 24.6 24.672C25.04 24.084 25.86 22.956 27.1 22.976C28.42 22.996 27.57 23.848 27.06 24.332C26.38 24.992 25.59 26.232 25.42 26.684C25.1 27.54 24.06 29.3 20.04 28.476C20.04 29.308 20.032 30.124 20.032 30.492C20.032 30.884 20.33 31.332 21.13 31.18C27.49 29.164 32.08 23.088 32.08 16C32.08 7.164 24.916 0 16 0Z" fill="#F0F6FC"/>
</svg>


